<?xml version="1.0" encoding="utf-8"?><svg viewBox="0 0 63 63" xmlns="http://www.w3.org/2000/svg" xmlns:xlink="http://www.w3.org/1999/xlink"><style>:root>svg{display:none}:root>svg:target{display:block}</style><svg fill="none" viewBox="0 0 63 63" id="car_bay_24x" xmlns="http://www.w3.org/2000/svg"><path d="M20.323 34.548a3.052 3.052 0 01-3.049-3.048 3.052 3.052 0 013.049-3.048A3.052 3.052 0 0123.37 31.5a3.052 3.052 0 01-3.048 3.048zM42.677 34.548A3.052 3.052 0 0139.63 31.5a3.052 3.052 0 013.048-3.048 3.052 3.052 0 013.049 3.048 3.052 3.052 0 01-3.049 3.048z" fill="#C40B0B"/><path d="M60.968 56.903V0H54.87v3.627l-2.656-1.595h-41.43L8.13 3.627V0H2.032v56.903H0V63h10.161v-6.097H8.13V46.742h5.08a4.069 4.069 0 004.065 4.064 4.069 4.069 0 004.065-4.064v-4.065H41.66v4.065a4.069 4.069 0 004.065 4.064 4.069 4.069 0 004.064-4.064h5.081v10.161h-2.032V63H63v-6.097h-2.032zm-2.033-54.87v50.806h-2.032V2.032h2.032zM45.725 36.58v2.032h4.065a1.016 1.016 0 010 2.032H13.21a1.017 1.017 0 010-2.032h30.483V36.58H15.242V29.1c0-.482.343-.901.817-.996l4.264-.852V18.29c0-.56.455-1.016 1.016-1.016H41.66c.561 0 1.016.456 1.016 1.016v8.963l4.264.852c.474.095.817.514.817.997v7.479h-2.032zm1.615-10.469l-2.63-.526V18.29a3.052 3.052 0 00-3.049-3.048H21.34a3.052 3.052 0 00-3.049 3.048v7.296l-2.63.527a3.055 3.055 0 00-2.45 2.989v.366H8.129V10.736l4.346-2.607h38.049l4.347 2.607v18.732h-5.08v-.366a3.055 3.055 0 00-2.45-2.99zM11.35 4.066h40.3l3.221 1.932v2.37l-3.783-2.27H11.912L8.13 8.367v-2.37l3.22-1.932zM6.096 2.032V52.84H4.065V2.032h2.032zM4.065 56.903v-2.032h2.032v2.032H4.065zM8.129 44.71V31.5h5.08v5.08a3.052 3.052 0 00-3.048 3.049 3.052 3.052 0 003.049 3.048v2.033H8.129zm41.661 0v-2.033a3.052 3.052 0 003.049-3.048 3.052 3.052 0 00-3.049-3.048V31.5h5.081v13.21h-5.08zm7.113 10.161h2.032v2.032h-2.032v-2.032z" fill="#02133C"/><path d="M22.355 26.42h18.29v-7.114h-18.29v7.113zM37.597 32.516H25.403v2.032h12.194v-2.032zM37.597 28.452H25.403v2.032h12.194v-2.032z" fill="#02133C"/><path d="M58.935 48.774h-2.032v2.032h2.032v-2.032zM58.935 44.71h-2.032v2.032h2.032V44.71zM6.097 48.774H4.064v2.032h2.033v-2.032zM6.097 44.71H4.064v2.032h2.033V44.71z" fill="#C40B0B"/></svg><svg fill="none" viewBox="0 0 63 63" id="car_engine_24x" xmlns="http://www.w3.org/2000/svg"><g clip-path="url(#bclip0_519_922)"><path d="M7.113 30.484a3.052 3.052 0 00-3.049 3.048 3.052 3.052 0 003.049 3.049 3.052 3.052 0 003.048-3.049 3.052 3.052 0 00-3.048-3.048zm0 4.064a1.017 1.017 0 010-2.032 1.017 1.017 0 010 2.032z" fill="#02133C"/><path d="M59.952 0H21.787a3.044 3.044 0 00-2.892 2.085l-.321.963h-3.332a3.052 3.052 0 00-3.049 3.049v1.316c-2.934.877-5.08 3.597-5.08 6.813 0 2.123.939 4.026 2.418 5.33a11.253 11.253 0 00-4.294 7.122C2.223 27.505 0 30.26 0 33.532c0 3.922 3.19 7.113 7.113 7.113h1.016v-2.032H7.113a5.086 5.086 0 01-5.08-5.08c0-2.802 2.278-5.081 5.08-5.081 1.808 0 3.493.973 4.4 2.539l1.759-1.018c-.103-.177-.222-.34-.338-.505h1.292v-8.13a7.12 7.12 0 007.113-7.112 7.12 7.12 0 00-7.113-7.113V6.097c0-.56.456-1.016 1.016-1.016h4.797l.784-2.354c.139-.415.526-.695.964-.695h.67a5.09 5.09 0 004.979 4.065 5.09 5.09 0 004.977-4.065h4.168v11.204a5.028 5.028 0 00-3.049-1.043 5.086 5.086 0 00-5.08 5.081c0 2.802 2.279 5.08 5.08 5.08a5.09 5.09 0 004.978-4.064h16.361v11.178h-13.21V31.5h15.242V16.258h3.049A3.052 3.052 0 0063 13.21V3.048A3.052 3.052 0 0059.952 0zM12.194 28.561a7.147 7.147 0 00-4.852-2.126 9.23 9.23 0 014.023-5.702c.268.118.545.215.829.3v7.528zm7.112-14.335c0 2.801-2.279 5.08-5.08 5.08a5.05 5.05 0 01-2.819-.857l-.027-.057-.029.016a5.076 5.076 0 01-2.206-4.182c0-2.802 2.28-5.08 5.08-5.08 2.802 0 5.082 2.278 5.082 5.08zm8.13-10.161a3.044 3.044 0 01-2.862-2.033h5.722a3.042 3.042 0 01-2.86 2.033zm6.096 16.258a3.052 3.052 0 01-3.048-3.049 3.052 3.052 0 013.048-3.048 3.052 3.052 0 013.049 3.048 3.052 3.052 0 01-3.049 3.049zm15.242-4.065H38.613V2.032h3.075a5.028 5.028 0 00-1.043 3.049c0 2.801 2.28 5.08 5.08 5.08a5.028 5.028 0 003.05-1.042v7.14zM45.726 8.13a3.052 3.052 0 01-3.049-3.048 3.052 3.052 0 013.049-3.049 3.052 3.052 0 013.048 3.049 3.052 3.052 0 01-3.048 3.048zm15.242 5.08c0 .56-.457 1.017-1.016 1.017h-3.049v-2.033h-2.032V16.258h-4.065V5.081a5.028 5.028 0 00-1.042-3.049h5.107v8.13h2.032v-8.13h3.049c.56 0 1.016.457 1.016 1.016V13.21z" fill="#02133C"/><path d="M11.178 14.226a3.052 3.052 0 003.048 3.048 3.052 3.052 0 003.048-3.048 3.052 3.052 0 00-3.048-3.049 3.052 3.052 0 00-3.049 3.049zm4.064 0c0 .56-.456 1.016-1.016 1.016s-1.016-.456-1.016-1.016.456-1.016 1.016-1.016 1.016.456 1.016 1.016z" fill="#02133C"/><path d="M31.5 63h-8.129v-4.578a16.05 16.05 0 01-4.19-1.741l-3.24 3.24-5.75-5.748 3.241-3.242a16.053 16.053 0 01-1.741-4.19H7.113v-8.128h4.578a16.053 16.053 0 011.741-4.19l-3.24-3.241 5.748-5.748 3.242 3.24a16.053 16.053 0 014.19-1.742v-4.577H31.5v4.577c1.468.378 2.873.962 4.19 1.742l3.241-3.24 5.748 5.748-3.24 3.241a16.05 16.05 0 011.742 4.19h4.577v8.129H43.18a16.05 16.05 0 01-1.741 4.19l3.24 3.24-5.748 5.749-3.241-3.24a16.05 16.05 0 01-4.19 1.741V63z" fill="#C40B0B"/><path d="M27.436 52.839c-5.603 0-10.162-4.559-10.162-10.162 0-5.602 4.559-10.16 10.162-10.16 5.603 0 10.161 4.557 10.161 10.16 0 2.7-1.048 5.243-2.95 7.159l-1.443-1.43a8.082 8.082 0 002.36-5.729c0-4.482-3.646-8.129-8.128-8.129s-8.13 3.647-8.13 8.13c0 4.482 3.648 8.128 8.13 8.128a8.107 8.107 0 004.34-1.253l1.086 1.716a10.124 10.124 0 01-5.426 1.57z" fill="#02133C"/><path d="M27.436 48.774a6.103 6.103 0 01-6.097-6.097 6.103 6.103 0 016.097-6.096 6.103 6.103 0 016.096 6.096 6.103 6.103 0 01-6.096 6.097zm0-10.161a4.069 4.069 0 00-4.065 4.064 4.069 4.069 0 004.065 4.065 4.069 4.069 0 004.064-4.065 4.069 4.069 0 00-4.064-4.064z" fill="#02133C"/></g><defs><clipPath id="bclip0_519_922"><path fill="#fff" d="M0 0h63v63H0z"/></clipPath></defs></svg></svg>